<svg fill="none" height="90" viewBox="0 0 124 90" width="124" xmlns="http://www.w3.org/2000/svg"><path d="m21.7384 26.6739c.1939-1.6165 1.3483-2.9541 2.919-3.3825l11.3756-3.1024c1.2723-.347 2.5262.6108 2.5262 1.9295v17.8815l-21.0592 22z" fill="#00a5f6"/><path d="m67 7.5 3.5 23-31.7114 37.8644c-1.0749 1.2834-2.8354 1.7618-4.412 1.1987l-15.5349-5.5482c-1.3484-.4816-1.7688-2.1825-.8-3.2367z" fill="#ff3e00"/><path d="m66.7214 8.2943c-.1114-.65109.4279-1.22937 1.0852-1.16364l17.3921 1.73921c.7905.07905 1.4593.61853 1.7039 1.37443l20.9104 64.6335c.367 1.1328-.331 2.3329-1.497 2.5741l-22.761 4.7091c-2.2165.4586-4.3716-1.0116-4.7532-3.2426z" fill="#ffb700"/></svg>